<?xml version="1.0" standalone="no"?>
<!DOCTYPE svg PUBLIC "-//W3C//DTD SVG 20010904//EN"
 "http://www.w3.org/TR/2001/REC-SVG-20010904/DTD/svg10.dtd">
<svg version="1.0" xmlns="http://www.w3.org/2000/svg"
viewBox="0 0 500.000000 500.000000"
 preserveAspectRatio="xMidYMid meet">

<g transform="translate(0.000000,500.000000) scale(0.100000,-0.100000)"
fill="#000000" stroke="none">
<path d="M1690 4038 c0 -3 123 -364 772 -2270 l282 -828 208 0 c167 0 208 3
208 13 0 8 -54 173 -121 368 -66 195 -185 543 -264 774 -79 231 -241 706 -360
1055 -119 349 -236 691 -259 760 l-43 125 -211 3 c-117 1 -212 1 -212 0z"/>
<path d="M1161 4014 c-193 -42 -334 -166 -360 -317 -7 -39 -11 -210 -11 -439
0 -433 -2 -449 -76 -528 -56 -60 -116 -86 -232 -101 l-92 -13 0 -123 c0 -92 3
-123 13 -123 6 0 44 -5 82 -10 127 -16 221 -72 270 -161 l30 -54 5 -445 c7
-511 5 -500 99 -602 113 -123 239 -166 514 -175 l177 -6 0 145 0 145 -120 6
c-142 7 -198 27 -227 79 -16 30 -18 72 -23 473 -6 480 -6 480 -67 567 -50 74
-125 114 -261 142 -29 6 -53 15 -53 21 0 5 26 14 58 21 139 28 247 106 296
212 21 45 22 63 27 484 5 421 6 438 26 465 36 49 80 64 219 70 l125 6 0 139 0
138 -177 -1 c-112 -1 -202 -6 -242 -15z"/>
<path d="M3250 3892 l0 -139 125 -6 c139 -6 183 -21 219 -70 20 -27 21 -44 27
-460 3 -283 9 -443 16 -465 42 -121 150 -202 313 -236 30 -7 54 -16 53 -21 -1
-6 -28 -15 -61 -22 -155 -32 -249 -99 -294 -212 -22 -54 -23 -68 -28 -496 -5
-479 -6 -480 -64 -519 -30 -19 -134 -36 -233 -36 l-73 0 0 -147 0 -146 178 6
c131 4 197 11 256 26 171 45 296 149 336 279 19 59 20 94 20 473 0 391 1 411
21 465 40 105 139 173 282 193 43 6 83 11 88 11 5 0 9 54 9 123 l0 123 -92 13
c-115 15 -177 41 -229 98 -76 82 -73 67 -79 548 -6 469 -6 470 -66 557 -35 50
-111 108 -184 142 -92 42 -184 56 -371 56 l-169 0 0 -138z"/>
</g>
</svg>
